<?xml version="1.0" standalone="no"?>
<!DOCTYPE svg PUBLIC "-//W3C//DTD SVG 20010904//EN"
 "http://www.w3.org/TR/2001/REC-SVG-20010904/DTD/svg10.dtd">
<svg version="1.0" xmlns="http://www.w3.org/2000/svg"
 width="225.000000pt" height="225.000000pt" viewBox="0 0 225.000000 225.000000"
 preserveAspectRatio="xMidYMid meet">
<metadata>
Created by potrace 1.14, written by Peter Selinger 2001-2017
</metadata>
<g transform="translate(0.000000,225.000000) scale(0.100000,-0.100000)"
fill="#000000" stroke="none">
<path d="M967 2060 c-244 -44 -474 -190 -606 -382 l-32 -48 80 0 80 0 53 56
c99 106 239 189 377 226 101 26 277 28 376 4 159 -40 323 -144 425 -269 87
-105 169 -300 170 -399 l0 -28 -337 -2 -336 -3 -124 -305 c-67 -168 -123 -306
-123 -308 0 -1 39 -1 86 0 l86 3 42 105 42 105 146 3 146 3 26 64 c14 36 26
67 26 70 0 3 -63 5 -140 5 -77 0 -140 4 -140 9 0 5 9 29 20 55 l21 46 351 0
351 0 -6 123 c-12 264 -128 499 -329 667 -88 72 -243 152 -353 181 -90 23
-298 34 -378 19z"/>
<path d="M230 1402 c-34 -127 -41 -311 -15 -429 63 -297 243 -525 519 -653
139 -66 188 -75 386 -74 165 0 180 2 260 28 163 54 277 125 391 243 79 80 137
164 177 254 52 116 54 109 -28 109 l-71 0 -19 -45 c-88 -205 -293 -379 -521
-441 -99 -28 -301 -26 -402 4 -322 93 -548 369 -574 701 -3 43 -3 103 1 134
l7 57 60 0 60 0 23 53 c13 28 26 62 30 75 l7 22 -140 0 -140 0 -11 -38z"/>
<path d="M701 1418 c-31 -79 -233 -574 -237 -580 -3 -5 101 -7 231 -6 l237 3
29 68 c16 38 29 71 29 73 0 2 -65 4 -145 4 -80 0 -145 2 -145 5 0 3 32 85 71
182 39 98 80 199 90 226 l19 47 -85 0 c-79 0 -86 -2 -94 -22z"/>
</g>
</svg>
